<mxfile host="app.diagrams.net" modified="2021-07-07T01:20:28.716Z" agent="5.0 (Windows NT 6.1; Win64; x64) AppleWebKit/537.36 (KHTML, like Gecko) Chrome/91.0.4472.124 Safari/537.36" etag="cHd_8VlyoImFSR5SLAGN" version="14.8.3" type="github">
  <diagram id="6o9tUJPgLRm7XhfGL3Nz" name="第 1 页">
    <mxGraphModel dx="1102" dy="1751" grid="1" gridSize="10" guides="1" tooltips="1" connect="1" arrows="1" fold="1" page="1" pageScale="1" pageWidth="827" pageHeight="1169" math="0" shadow="0">
      <root>
        <mxCell id="0" />
        <mxCell id="1" parent="0" />
        <mxCell id="sIVTDTqw1NNCKyZFnhjz-1" value="" style="shape=flexArrow;endArrow=classic;html=1;fontSize=16;fillColor=#f9f7ed;strokeColor=#36393d;" edge="1" parent="1">
          <mxGeometry width="50" height="50" relative="1" as="geometry">
            <mxPoint x="200" y="40" as="sourcePoint" />
            <mxPoint x="200" y="410" as="targetPoint" />
          </mxGeometry>
        </mxCell>
        <mxCell id="sIVTDTqw1NNCKyZFnhjz-2" value="" style="shape=flexArrow;endArrow=classic;html=1;fontSize=16;fillColor=#f9f7ed;strokeColor=#36393d;" edge="1" parent="1">
          <mxGeometry width="50" height="50" relative="1" as="geometry">
            <mxPoint x="400" y="40" as="sourcePoint" />
            <mxPoint x="400" y="400" as="targetPoint" />
          </mxGeometry>
        </mxCell>
        <mxCell id="sIVTDTqw1NNCKyZFnhjz-3" value="请求" style="endArrow=classic;html=1;fontSize=16;fillColor=#ffff88;strokeWidth=2;strokeColor=#3399FF;fontColor=#3399FF;" edge="1" parent="1">
          <mxGeometry width="50" height="50" relative="1" as="geometry">
            <mxPoint x="210" y="170" as="sourcePoint" />
            <mxPoint x="390" y="220" as="targetPoint" />
          </mxGeometry>
        </mxCell>
        <mxCell id="sIVTDTqw1NNCKyZFnhjz-4" value="响应" style="endArrow=classic;html=1;fontSize=16;strokeWidth=2;strokeColor=#00CC00;fontColor=#00CC00;" edge="1" parent="1">
          <mxGeometry width="50" height="50" relative="1" as="geometry">
            <mxPoint x="390" y="240" as="sourcePoint" />
            <mxPoint x="210" y="290" as="targetPoint" />
          </mxGeometry>
        </mxCell>
        <mxCell id="sIVTDTqw1NNCKyZFnhjz-5" value="服务器" style="aspect=fixed;perimeter=ellipsePerimeter;html=1;align=center;shadow=0;dashed=0;spacingTop=3;image;image=img/lib/active_directory/web_server.svg;fontSize=16;" vertex="1" parent="1">
          <mxGeometry x="370" y="-70" width="56" height="70" as="geometry" />
        </mxCell>
        <mxCell id="sIVTDTqw1NNCKyZFnhjz-6" value="浏览器" style="aspect=fixed;perimeter=ellipsePerimeter;html=1;align=center;shadow=0;dashed=0;spacingTop=3;image;image=img/lib/active_directory/home_page.svg;fontSize=16;" vertex="1" parent="1">
          <mxGeometry x="170" y="-60" width="66.67" height="60" as="geometry" />
        </mxCell>
        <mxCell id="sIVTDTqw1NNCKyZFnhjz-7" value="" style="shape=flexArrow;endArrow=classic;startArrow=classic;html=1;fontSize=16;fillColor=#ffcd28;strokeColor=#d79b00;gradientColor=#ffa500;" edge="1" parent="1">
          <mxGeometry width="100" height="100" relative="1" as="geometry">
            <mxPoint x="210" y="100" as="sourcePoint" />
            <mxPoint x="380" y="100" as="targetPoint" />
          </mxGeometry>
        </mxCell>
        <mxCell id="sIVTDTqw1NNCKyZFnhjz-8" value="TCP 三次握手&lt;br style=&quot;font-size: 16px;&quot;&gt;建立连接" style="text;html=1;align=center;verticalAlign=middle;resizable=0;points=[];autosize=1;strokeColor=#d79b00;fontSize=16;fillColor=#ffe6cc;" vertex="1" parent="1">
          <mxGeometry x="236.67" y="50" width="120" height="40" as="geometry" />
        </mxCell>
        <mxCell id="sIVTDTqw1NNCKyZFnhjz-9" value="" style="shape=flexArrow;endArrow=classic;startArrow=classic;html=1;fontSize=16;gradientColor=#ea6b66;fillColor=#f8cecc;strokeColor=#b85450;" edge="1" parent="1">
          <mxGeometry width="100" height="100" relative="1" as="geometry">
            <mxPoint x="210" y="360" as="sourcePoint" />
            <mxPoint x="380" y="360" as="targetPoint" />
          </mxGeometry>
        </mxCell>
        <mxCell id="sIVTDTqw1NNCKyZFnhjz-10" value="TCP 四次挥手&lt;br style=&quot;font-size: 16px;&quot;&gt;断开连接" style="text;html=1;align=center;verticalAlign=middle;resizable=0;points=[];autosize=1;strokeColor=#b85450;fontSize=16;fillColor=#f8cecc;" vertex="1" parent="1">
          <mxGeometry x="236.67" y="310" width="120" height="40" as="geometry" />
        </mxCell>
      </root>
    </mxGraphModel>
  </diagram>
</mxfile>
